<?xml version="1.0" standalone="no"?>
<!DOCTYPE svg PUBLIC "-//W3C//DTD SVG 20010904//EN"
 "http://www.w3.org/TR/2001/REC-SVG-20010904/DTD/svg10.dtd">
<svg version="1.0" xmlns="http://www.w3.org/2000/svg"
 width="1920.000000pt" height="1920.000000pt" viewBox="0 0 1920.000000 1920.000000"
 preserveAspectRatio="xMidYMid meet">

<g transform="translate(0.000000,1920.000000) scale(0.100000,-0.100000)"
fill="#000000" stroke="none">
<path d="M9270 16549 c-870 -41 -1698 -238 -2539 -603 -171 -74 -562 -280
-759 -398 -1803 -1091 -3027 -2912 -3356 -4993 -65 -412 -81 -644 -81 -1170 1
-393 8 -518 46 -835 171 -1423 769 -2758 1726 -3853 138 -157 483 -502 640
-640 683 -597 1419 -1031 2288 -1351 138 -50 141 -51 255 -51 96 0 123 4 161
21 59 28 114 76 145 130 55 94 55 90 47 837 -6 622 -8 687 -22 682 -33 -9
-251 -45 -376 -61 -158 -20 -518 -23 -655 -5 -511 66 -904 276 -1163 621 -71
94 -121 183 -173 311 -209 513 -443 819 -794 1039 -141 88 -260 218 -260 283
0 98 216 160 430 123 256 -45 483 -165 694 -366 116 -112 197 -212 296 -370
142 -227 283 -387 449 -509 380 -280 889 -327 1428 -132 163 59 173 64 178 86
2 11 13 72 25 135 54 287 184 559 352 736 l67 71 -142 17 c-431 53 -839 146
-1167 267 -291 108 -628 296 -850 476 -704 567 -1068 1510 -1059 2748 2 241 5
292 35 485 74 490 297 976 619 1356 36 42 65 79 65 82 0 4 -9 30 -20 58 -10
29 -30 96 -44 150 -120 476 -94 986 76 1504 61 188 53 177 150 185 270 22 676
-90 1114 -307 221 -110 366 -194 604 -349 l136 -88 54 14 c383 103 857 177
1350 211 269 19 773 4 1100 -32 314 -34 771 -118 999 -184 33 -9 41 -6 156 69
672 441 1281 680 1697 666 59 -2 111 -6 117 -9 25 -16 124 -329 160 -507 43
-209 55 -328 55 -559 1 -291 -26 -489 -99 -718 l-34 -107 22 -26 c12 -15 49
-60 83 -101 310 -375 507 -822 585 -1330 42 -271 37 -795 -12 -1178 -126 -993
-527 -1711 -1212 -2168 -485 -324 -1100 -521 -1920 -618 l-58 -6 69 -72 c202
-210 326 -489 388 -876 18 -107 19 -191 19 -1275 l0 -1160 26 -56 c36 -76 90
-133 157 -166 52 -26 66 -28 172 -28 115 0 116 1 270 57 536 196 1102 484
1560 795 1558 1061 2625 2668 2994 4513 53 263 81 473 121 885 13 139 17 766
6 945 -44 692 -159 1283 -375 1916 -539 1581 -1635 2934 -3076 3796 -1180 707
-2560 1052 -3940 987z"/>
</g>
</svg>
