<?xml version="1.0" standalone="no"?>
<!DOCTYPE svg PUBLIC "-//W3C//DTD SVG 20010904//EN"
 "http://www.w3.org/TR/2001/REC-SVG-20010904/DTD/svg10.dtd">
<svg version="1.0" xmlns="http://www.w3.org/2000/svg"
 width="2000.000000pt" height="2000.000000pt" viewBox="0 0 2000.000000 2000.000000"
 preserveAspectRatio="xMidYMid meet">

<g transform="translate(0.000000,2000.000000) scale(0.100000,-0.100000)"
fill="#000000" stroke="none">
<path d="M1345 19983 c-246 -21 -484 -105 -694 -244 -107 -71 -280 -236 -359
-343 -148 -202 -244 -447 -272 -692 -8 -72 -10 -2412 -8 -8764 l3 -8665 23
-100 c13 -55 35 -134 49 -175 181 -534 663 -921 1220 -980 67 -7 2808 -10
8758 -8 l8660 3 90 21 c307 72 540 199 745 404 209 209 345 464 407 764 16 76
17 638 21 8706 2 6185 0 8659 -8 8747 -42 471 -297 881 -698 1125 -142 86
-277 139 -462 181 l-95 21 -8670 2 c-4769 0 -8688 -1 -8710 -3z m3363 -2758
c353 -54 667 -208 925 -454 269 -258 435 -559 509 -922 20 -100 23 -142 22
-339 0 -194 -3 -239 -22 -325 -85 -383 -276 -712 -555 -955 -529 -462 -1280
-560 -1899 -249 -708 355 -1081 1129 -919 1903 106 503 448 944 912 1177 161
80 399 154 559 172 94 11 377 6 468 -8z m9352 -4509 c717 -77 1250 -264 1693
-594 726 -542 1118 -1435 1242 -2832 37 -422 38 -501 42 -3437 l4 -2893 -1485
0 -1485 0 -4 2638 c-4 2917 -1 2791 -68 3192 -100 604 -353 1004 -754 1195
-427 203 -1128 187 -1578 -36 -550 -273 -829 -832 -897 -1799 -6 -92 -10
-1060 -10 -2667 l0 -2523 -1485 0 -1485 0 0 4770 0 4770 1425 0 1425 0 0 -650
c0 -618 1 -650 18 -650 11 0 32 23 56 66 92 156 281 398 429 547 507 510 1156
826 1872 912 163 19 837 14 1045 -9z m-8120 -4986 l0 -4770 -1485 0 -1485 0 0
4770 0 4770 1485 0 1485 0 0 -4770z"/>
</g>
</svg>
