<?xml version="1.0" standalone="no"?>
<!DOCTYPE svg PUBLIC "-//W3C//DTD SVG 20010904//EN"
 "http://www.w3.org/TR/2001/REC-SVG-20010904/DTD/svg10.dtd">
<svg version="1.0" xmlns="http://www.w3.org/2000/svg"
 width="2000.000000pt" height="2000.000000pt" viewBox="0 0 2000.000000 2000.000000"
 preserveAspectRatio="xMidYMid meet">

<g transform="translate(0.000000,2000.000000) scale(0.100000,-0.100000)"
fill="#000000" stroke="none">
<path d="M9680 19974 c-256 -12 -491 -28 -665 -45 -2103 -208 -4057 -1064
-5650 -2478 -170 -151 -563 -539 -725 -716 -854 -933 -1526 -2025 -1973 -3205
-518 -1363 -729 -2864 -612 -4330 173 -2148 1019 -4144 2453 -5788 188 -215
689 -716 904 -904 545 -476 1116 -878 1743 -1231 204 -115 709 -362 940 -460
1676 -712 3512 -950 5335 -691 1748 248 3425 976 4813 2091 494 397 1025 919
1433 1409 1757 2110 2560 4844 2228 7589 -208 1722 -871 3371 -1907 4751 -598
796 -1235 1433 -2031 2031 -1438 1080 -3177 1756 -4976 1933 -349 34 -1030 57
-1310 44z m-590 -6274 c860 -1150 1567 -2089 1571 -2088 4 2 877 942 1940
2091 l1932 2087 540 0 c501 0 538 -1 526 -17 -8 -9 -1014 -1096 -2236 -2417
l-2222 -2400 23 -31 c132 -173 5016 -6707 5016 -6710 0 -3 -826 -5 -1835 -5
l-1835 0 -48 61 c-26 34 -789 1054 -1697 2267 -907 1213 -1654 2207 -1660
2208 -5 1 -955 -1019 -2109 -2267 l-2099 -2269 -534 0 c-301 0 -533 4 -533 9
0 5 1078 1173 2395 2596 1445 1561 2392 2592 2388 2599 -7 10 -597 799 -3758
5026 -545 729 -994 1331 -999 1338 -6 9 376 12 1832 12 l1838 0 1564 -2090z"/>
<path d="M5763 14558 c314 -421 5605 -7494 6631 -8866 l510 -682 844 0 844 0
-24 33 c-14 17 -1693 2263 -3732 4990 l-3707 4957 -844 0 -844 0 322 -432z"/>
</g>
</svg>
